<svg xmlns="http://www.w3.org/2000/svg" viewBox="0 0 200 40"><defs><style>.cls-1,.cls-7{fill:none;}.cls-1,.cls-5,.cls-6,.cls-7,.cls-8,.cls-9{stroke:#000;stroke-linecap:round;stroke-linejoin:round;}.cls-1{stroke-width:1.5px;}.cls-2,.cls-4{opacity:0;}.cls-3,.cls-4{fill:#fff;}.cls-5{fill:#ffe661;}.cls-6{fill:#ffa03d;}.cls-8{fill:#cfb9b1;}</style></defs><g id="LOGO-X"><line class="cls-1" x1="79.59" y1="6.75" x2="79.59" y2="36.75"/><g class="cls-2"><rect class="cls-3" x="88.39" y="10.84" width="22" height="21.82"/></g><g class="cls-2"><rect class="cls-3" x="141.53" y="10.84" width="22" height="21.82"/></g><g class="cls-2"><rect class="cls-3" x="114.96" y="10.84" width="22" height="21.82"/></g><g class="cls-2"><rect class="cls-3" x="168.1" y="10.84" width="22" height="21.82"/></g><path d="M109.58,21.44a.76.76,0,0,0-.75.75v8.9H98V25l7.53-2a.75.75,0,1,0-.39-1.45L98,23.4V19.68l7.53-2a.75.75,0,1,0-.39-1.44L98,18.13V14.41l7.53-2a.75.75,0,1,0-.39-1.45L89,15.3a.75.75,0,0,0,.2,1.47l.19,0,7.14-1.93v3.71l-7.53,2a.75.75,0,0,0,.2,1.48.63.63,0,0,0,.19,0l7.14-1.93v3.72l-7.53,2a.75.75,0,0,0,.2,1.47.63.63,0,0,0,.19,0l7.14-1.93v6.48a.76.76,0,0,0,.75.75h12.31a.75.75,0,0,0,.75-.75V22.19A.75.75,0,0,0,109.58,21.44Z"/><path d="M161.21,10.86H145.87a.76.76,0,0,0-.75.75v8.7h-1.27a.75.75,0,0,0,0,1.5h1.27v10a.75.75,0,0,0,.75.75h15.34a.76.76,0,0,0,.75-.75l0-20.23a.75.75,0,0,0-.75-.75Zm-.77,20.23H146.6V21.81h8.77a.75.75,0,0,0,0-1.5h-8.77V12.36h13.84Z"/><path d="M122.69,20.83a.75.75,0,1,0-.66-1.35l-2.14,1V16.88l3-3a.75.75,0,0,0,.16-.82.74.74,0,0,0-.69-.46H116a.75.75,0,0,0,0,1.5h4.61l-2,1.93a.75.75,0,0,0-.22.53v4.68l-2.8,1.35a.75.75,0,0,0,.33,1.43.61.61,0,0,0,.32-.08l2.15-1v8.17h-2.48a.75.75,0,0,0,0,1.5h3.23a.75.75,0,0,0,.75-.75V22.19Z"/><path d="M124.32,14.23H129l-4.06,6.12a.74.74,0,0,0,0,.77.76.76,0,0,0,.66.39h3.77l-3.52,4h-2.89a.75.75,0,0,0,0,1.5h3.22a.74.74,0,0,0,.56-.26l8.18-9.17a.75.75,0,0,0-1.12-1l-3.15,3.52a.94.94,0,0,0-.29-.06H127l3.84-5.78h5.12a.75.75,0,0,0,0-1.5h-5.12l-.5-1.39a.75.75,0,0,0-1-.45.74.74,0,0,0-.45.95l.32.89h-4.88a.75.75,0,0,0,0,1.5Z"/><path d="M132.08,27.14l4.73-6a.75.75,0,1,0-1.18-.93l-8.55,10.91h-4.17a.75.75,0,1,0,0,1.5h4.53a.75.75,0,0,0,.59-.29l3.12-4,4.57,4.07a.73.73,0,0,0,.5.19.78.78,0,0,0,.56-.25.76.76,0,0,0-.06-1.06Z"/><path d="M170.38,17.26h6a.75.75,0,0,0,0-1.5h-6a.75.75,0,1,0,0,1.5Z"/><path d="M177.84,12.73h-4l-.5-1.39a.75.75,0,0,0-1-.45.74.74,0,0,0-.45.95l.32.89H168.9a.75.75,0,0,0,0,1.5h8.94a.75.75,0,0,0,0-1.5Z"/><path d="M170.38,19.79h6a.75.75,0,0,0,0-1.5h-6a.75.75,0,0,0,0,1.5Z"/><path d="M177.14,21.47h-7.35a.76.76,0,0,0-.75.75v9.62a.76.76,0,0,0,.75.75h7.35a.75.75,0,0,0,.75-.75V22.22A.75.75,0,0,0,177.14,21.47Zm-.75,9.62h-5.85V23h5.85Z"/><path d="M189.36,26.16a.76.76,0,0,0-.75.75v4.18H181.3l-.1-9.63h7.28a.75.75,0,0,0,.53-.22.71.71,0,0,0,.22-.53V12a.75.75,0,0,0-.75-.75H180a.75.75,0,0,0,0,1.5h7.71V20h-7.28a.79.79,0,0,0-.54.22.78.78,0,0,0-.21.54l.1,11.13a.75.75,0,0,0,.75.74h8.81a.75.75,0,0,0,.75-.75V26.91A.75.75,0,0,0,189.36,26.16Z"/><rect class="cls-4" x="9.89" y="3.25" width="64" height="32"/><path class="cls-5" d="M46.73,34.74H12.47c-4.11-4.81-1.84-18.39,4.43-31l2.68,8.69a31.94,31.94,0,0,1,17.61-.39l3.39-7.8Z"/><rect x="20.84" y="18.05" width="1.38" height="4.49" rx="0.69"/><rect x="29.64" y="18.05" width="1.38" height="4.49" rx="0.69"/><path d="M26.1,25l.69-1.22a.52.52,0,0,0-.46-.78H25a.52.52,0,0,0-.46.78L25.18,25A.53.53,0,0,0,26.1,25Z"/><line class="cls-6" x1="25.64" y1="24.82" x2="25.64" y2="29"/><path class="cls-7" d="M18.41,22.71c0,8.41,14.46,8.41,14.46,0"/><path class="cls-8" d="M73.39,17.82H63.81a1.33,1.33,0,0,1-.94-.41C60.57,15,60.49,10.89,59.22,4c-1,2.31-5.81,13.23-18.61.24l.07,30.5h22.7v-5l10-3.9Z"/><rect x="51.38" y="17.01" width="1.4" height="4.47" rx="0.7" transform="translate(-3.03 12.49) rotate(-13.29)"/><path d="M54.9,17.12a.69.69,0,0,1,.52-.84h0a.7.7,0,0,1,.84.52l.7,3a.69.69,0,0,1-.52.84h0a.7.7,0,0,1-.84-.52"/><path class="cls-8" d="M51.38,27c10.4,7.64,22,.11,22,.11V23.42"/><path class="cls-7" d="M51.09,24.16s1.83,6-3.74,5.48"/><polygon class="cls-9" points="68.88 17.83 73.39 23.16 73.39 17.83 68.88 17.83"/></g></svg>