<svg xmlns="http://www.w3.org/2000/svg" viewBox="0 0 200 65"><defs><style>.cls-1{fill:#fff;opacity:0;}.cls-2,.cls-5{fill:none;}.cls-2,.cls-3,.cls-4,.cls-5,.cls-6,.cls-7{stroke:#000;stroke-linecap:round;stroke-linejoin:round;}.cls-2{stroke-width:1.5px;}.cls-3{fill:#ffe661;}.cls-4{fill:#ffa03d;}.cls-6{fill:#cfb9b1;}</style></defs><g id="LOGO-X"><rect class="cls-1" width="200" height="65"/><line class="cls-2" x1="79.6" y1="19.25" x2="79.6" y2="49.25"/><rect class="cls-1" x="88.39" y="23.34" width="22" height="21.82"/><line class="cls-2" x1="105.36" y1="24.15" x2="89.19" y2="28.52"/><line class="cls-2" x1="105.36" y1="29.42" x2="89.19" y2="33.8"/><line class="cls-2" x1="105.36" y1="34.69" x2="89.19" y2="39.07"/><polyline class="cls-2" points="97.28 26.73 97.28 44.34 109.58 44.34 109.58 34.69"/><rect class="cls-1" x="141.54" y="23.34" width="22" height="21.82"/><polygon class="cls-2" points="161.19 44.34 145.85 44.34 145.88 24.11 161.21 24.11 161.19 44.34"/><line class="cls-2" x1="143.85" y1="33.56" x2="155.38" y2="33.56"/><rect class="cls-1" x="114.97" y="23.34" width="22" height="21.82"/><polyline class="cls-2" points="115.97 25.86 122.4 25.86 119.14 29.07 119.14 44.33 115.92 44.33"/><line class="cls-2" x1="115.92" y1="35.78" x2="122.37" y2="32.65"/><polyline class="cls-2" points="129.59 24.09 130.31 26.1 125.56 33.26 130.31 33.26"/><line class="cls-2" x1="124.32" y1="25.98" x2="135.91" y2="25.98"/><polyline class="cls-2" points="134.31 29.55 126.14 38.72 122.91 38.72"/><polyline class="cls-2" points="136.22 33.15 127.45 44.34 122.91 44.34"/><line class="cls-2" x1="136.22" y1="44.33" x2="131.53" y2="40.15"/><rect class="cls-1" x="168.11" y="23.34" width="22" height="21.82"/><line class="cls-2" x1="170.38" y1="29.01" x2="176.37" y2="29.01"/><line class="cls-2" x1="168.9" y1="25.98" x2="177.85" y2="25.98"/><line class="cls-2" x1="170.38" y1="31.54" x2="176.37" y2="31.54"/><rect class="cls-2" x="169.8" y="34.72" width="7.35" height="9.62"/><polyline class="cls-2" points="180.03 24.52 188.48 24.52 188.49 33.21 180.45 33.21 180.56 44.34 189.37 44.34 189.37 39.41"/><line class="cls-2" x1="172.65" y1="24.09" x2="173.24" y2="25.73"/><rect class="cls-1" x="9.89" y="15.75" width="64" height="32"/><path class="cls-3" d="M46.74,47.24H12.47c-4.11-4.81-1.83-18.39,4.43-31l2.69,8.69a31.9,31.9,0,0,1,17.6-.39l3.39-7.8Z"/><rect x="20.84" y="30.55" width="1.38" height="4.49" rx="0.69"/><rect x="29.64" y="30.55" width="1.38" height="4.49" rx="0.69"/><path d="M26.1,37.49l.69-1.22a.52.52,0,0,0-.45-.78H25a.53.53,0,0,0-.46.78l.7,1.22A.53.53,0,0,0,26.1,37.49Z"/><line class="cls-4" x1="25.64" y1="37.32" x2="25.64" y2="41.5"/><path class="cls-5" d="M18.41,35.21c0,8.41,14.47,8.41,14.47,0"/><path class="cls-6" d="M73.39,30.32H63.81a1.31,1.31,0,0,1-.93-.41c-2.31-2.42-2.39-6.51-3.66-13.4-1,2.31-5.8,13.23-18.61.24l.08,30.5H63.38v-5l10-3.9Z"/><rect x="51.39" y="29.51" width="1.4" height="4.47" rx="0.7" transform="translate(-5.9 12.83) rotate(-13.29)"/><path d="M54.9,29.62a.7.7,0,0,1,.52-.84h0a.69.69,0,0,1,.84.52l.7,3a.69.69,0,0,1-.51.84h0a.69.69,0,0,1-.84-.52"/><path class="cls-6" d="M51.38,39.53c10.4,7.64,22,.11,22,.11V35.92"/><path class="cls-5" d="M51.1,36.66s1.82,6-3.75,5.48"/><polygon class="cls-7" points="68.88 30.33 73.39 35.66 73.39 30.33 68.88 30.33"/></g></svg>