<svg xmlns="http://www.w3.org/2000/svg" viewBox="0 0 200 65"><defs><style>.cls-1,.cls-4{fill:#fff;}.cls-1,.cls-3{opacity:0;}.cls-2,.cls-7{fill:none;}.cls-2,.cls-5,.cls-6,.cls-7,.cls-8,.cls-9{stroke:#000;stroke-linecap:round;stroke-linejoin:round;}.cls-2{stroke-width:1.5px;}.cls-5{fill:#ffe661;}.cls-6{fill:#ffa03d;}.cls-8{fill:#cfb9b1;}</style></defs><g id="LOGO-X"><rect class="cls-1" width="200" height="65"/><line class="cls-2" x1="79.6" y1="19.25" x2="79.6" y2="49.25"/><g class="cls-3"><rect class="cls-4" x="88.39" y="23.34" width="22" height="21.82"/></g><g class="cls-3"><rect class="cls-4" x="141.54" y="23.34" width="22" height="21.82"/></g><g class="cls-3"><rect class="cls-4" x="114.97" y="23.34" width="22" height="21.82"/></g><g class="cls-3"><rect class="cls-4" x="168.11" y="23.34" width="22" height="21.82"/></g><path d="M109.58,33.94a.76.76,0,0,0-.75.75v8.9H98V37.46l7.53-2a.75.75,0,0,0-.4-1.45L98,35.9V32.18l7.53-2a.75.75,0,0,0-.4-1.44L98,30.63V26.91l7.53-2a.75.75,0,0,0-.4-1.45L89,27.8a.75.75,0,0,0,.19,1.47l.2,0,7.14-1.93V31l-7.53,2a.75.75,0,0,0,.19,1.48.69.69,0,0,0,.2,0l7.14-1.93v3.72l-7.53,2a.75.75,0,0,0,.19,1.47.69.69,0,0,0,.2,0l7.14-1.93v6.48a.75.75,0,0,0,.75.75h12.3a.75.75,0,0,0,.75-.75V34.69A.75.75,0,0,0,109.58,33.94Z"/><path d="M161.21,23.36H145.87a.76.76,0,0,0-.75.75v8.7h-1.27a.75.75,0,0,0,0,1.5h1.26v10a.75.75,0,0,0,.75.75h15.34a.75.75,0,0,0,.75-.75l0-20.23a.71.71,0,0,0-.22-.53A.75.75,0,0,0,161.21,23.36Zm-.77,20.23H146.6V34.31h8.77a.75.75,0,0,0,0-1.5h-8.76v-8h13.84Z"/><path d="M122.69,33.33A.75.75,0,0,0,122,32l-2.15,1V29.38l3-3a.75.75,0,0,0-.53-1.28H116a.75.75,0,0,0,0,1.5h4.61l-1.95,1.93a.72.72,0,0,0-.23.53v4.68l-2.8,1.35a.75.75,0,0,0,.33,1.43.67.67,0,0,0,.33-.08l2.14-1v8.17h-2.47a.75.75,0,0,0,0,1.5h3.22a.74.74,0,0,0,.75-.75V34.69Z"/><path d="M124.32,26.73H129l-4.06,6.12a.76.76,0,0,0,0,.77.77.77,0,0,0,.67.39h3.76l-3.52,4h-2.89a.75.75,0,0,0,0,1.5h3.23a.76.76,0,0,0,.56-.26L134.87,30a.73.73,0,0,0-.06-1.05.75.75,0,0,0-1.06.06l-3.14,3.52a.94.94,0,0,0-.3-.06H127l3.84-5.78h5.12a.75.75,0,0,0,0-1.5h-5.12l-.5-1.39a.75.75,0,0,0-1-.45.74.74,0,0,0-.45.95l.32.89h-4.88a.75.75,0,0,0,0,1.5Z"/><path d="M132.08,39.64l4.73-6a.75.75,0,1,0-1.18-.93l-8.55,10.91h-4.17a.75.75,0,0,0,0,1.5h4.54a.75.75,0,0,0,.59-.29l3.12-4,4.56,4.07a.75.75,0,0,0,.5.19.77.77,0,0,0,.56-.25.75.75,0,0,0-.06-1.06Z"/><path d="M170.38,29.76h6a.75.75,0,0,0,0-1.5h-6a.75.75,0,0,0,0,1.5Z"/><path d="M177.85,25.23h-4l-.5-1.39a.75.75,0,0,0-1-.45.74.74,0,0,0-.45.95l.31.89H168.9a.75.75,0,0,0,0,1.5h8.95a.75.75,0,0,0,0-1.5Z"/><path d="M170.38,32.29h6a.75.75,0,0,0,0-1.5h-6a.75.75,0,0,0,0,1.5Z"/><path d="M177.15,34H169.8a.75.75,0,0,0-.75.75v9.62a.75.75,0,0,0,.75.75h7.35a.76.76,0,0,0,.75-.75V34.72A.76.76,0,0,0,177.15,34Zm-.75,9.62h-5.85V35.47h5.85Z"/><path d="M189.37,38.66a.75.75,0,0,0-.75.75v4.18H181.3L181.21,34h7.28a.75.75,0,0,0,.75-.75V24.52a.75.75,0,0,0-.75-.75H180a.75.75,0,0,0,0,1.5h7.7v7.19h-7.29a.75.75,0,0,0-.53.22.79.79,0,0,0-.22.54l.11,11.13a.74.74,0,0,0,.75.74h8.81a.76.76,0,0,0,.75-.75V39.41A.76.76,0,0,0,189.37,38.66Z"/><rect class="cls-1" x="9.89" y="15.75" width="64" height="32"/><path class="cls-5" d="M46.74,47.24H12.47c-4.11-4.81-1.83-18.39,4.43-31l2.69,8.69a31.9,31.9,0,0,1,17.6-.39l3.39-7.8Z"/><rect x="20.84" y="30.55" width="1.38" height="4.49" rx="0.69"/><rect x="29.64" y="30.55" width="1.38" height="4.49" rx="0.69"/><path d="M26.1,37.49l.69-1.22a.52.52,0,0,0-.45-.78H25a.53.53,0,0,0-.46.78l.7,1.22A.53.53,0,0,0,26.1,37.49Z"/><line class="cls-6" x1="25.64" y1="37.32" x2="25.64" y2="41.5"/><path class="cls-7" d="M18.41,35.21c0,8.41,14.47,8.41,14.47,0"/><path class="cls-8" d="M73.39,30.32H63.81a1.31,1.31,0,0,1-.93-.41c-2.31-2.42-2.39-6.51-3.66-13.4-1,2.31-5.8,13.23-18.61.24l.08,30.5H63.38v-5l10-3.9Z"/><rect x="51.39" y="29.51" width="1.4" height="4.47" rx="0.7" transform="translate(-5.9 12.83) rotate(-13.29)"/><path d="M54.9,29.62a.7.7,0,0,1,.52-.84h0a.69.69,0,0,1,.84.52l.7,3a.69.69,0,0,1-.51.84h0a.69.69,0,0,1-.84-.52"/><path class="cls-8" d="M51.38,39.53c10.4,7.64,22,.11,22,.11V35.92"/><path class="cls-7" d="M51.1,36.66s1.82,6-3.75,5.48"/><polygon class="cls-9" points="68.88 30.33 73.39 35.66 73.39 30.33 68.88 30.33"/></g></svg>